<svg xmlns="http://www.w3.org/2000/svg" aria-hidden="true" style="position:absolute;width:0;height:0;overflow:hidden"><defs>
<symbol id="arrowNarrowRight" viewBox="0 0 32 32"><path  stroke-linecap="round" stroke-linejoin="round" stroke-width="2.667" d="M5.333 16h21.333m.001 0-8-8m8 8-8 8" /></symbol>
<symbol id="icon-chevron-up" viewBox="0 0 32 32"><path fill="none" stroke="#8baa36" stroke-linecap="round" stroke-linejoin="round" stroke-width="3.2" d="m8 12 8 8 8-8" style="stroke:var(--color2, #8baa36)"/></symbol>
<symbol id="icon-clock" viewBox="0 0 32 32"><path stroke-linecap="round" stroke-linejoin="round" stroke-width="2.88" d="M15.999 29.333c7.364 0 13.333-5.97 13.333-13.333S23.362 2.667 15.999 2.667C8.635 2.667 2.666 8.637 2.666 16s5.97 13.333 13.333 13.333z"/><path stroke-linecap="round" stroke-linejoin="round" stroke-width="2.88" d="M16 8v8l5.333 2.667"/></symbol>
<symbol id="edit" viewBox="0 0 32 32">
<path stroke-linejoin="round" stroke-linecap="round" stroke-miterlimit="4" stroke-width="2.1895" d="M3.789 24.546c0.079-0.696 0.118-1.044 0.222-1.369 0.102-0.312 0.235-0.583 0.4-0.831l-0.008 0.012c0.189-0.286 0.438-0.532 0.933-1.027l17.331-17.331c0.683-0.682 1.625-1.103 2.666-1.103s1.984 0.422 2.666 1.103l-0-0c0.682 0.683 1.104 1.626 1.104 2.667s-0.422 1.984-1.104 2.667l-17.331 17.331c-0.495 0.493-0.743 0.741-1.027 0.93-0.236 0.157-0.506 0.29-0.795 0.386l-0.024 0.007c-0.325 0.106-0.674 0.145-1.369 0.222l-4.121 0.458 0.458-4.121z"></path>
</symbol>

<symbol id="lock" viewBox="0 0 32 32"><path  stroke-linecap="round" stroke-linejoin="round" stroke-width="2.56" d="M22.4 14.72v-3.84c0-3.535-2.865-6.4-6.4-6.4s-6.4 2.865-6.4 6.4v3.84m1.024 12.8h10.752c2.151 0 3.226 0 4.047-.419a3.838 3.838 0 0 0 1.678-1.678c.419-.822.419-1.897.419-4.047v-.512c0-2.151 0-3.226-.419-4.047a3.838 3.838 0 0 0-1.678-1.678c-.822-.419-1.897-.419-4.047-.419H10.624c-2.151 0-3.226 0-4.047.419a3.838 3.838 0 0 0-1.678 1.678c-.419.822-.419 1.897-.419 4.047v.512c0 2.151 0 3.226.419 4.047.368.723.956 1.31 1.678 1.678.821.419 1.897.419 4.047.419z" opacity=".8" /></symbol>
<symbol id="email" viewBox="0 0 32 32"><path  stroke-linecap="round" stroke-linejoin="round" stroke-width="2.56" d="m3.2 9.6 10.451 7.316c.846.593 1.27.889 1.73 1.003.407.101.832.101 1.238 0 .46-.115.883-.411 1.73-1.003L28.8 9.6M9.344 26.24h13.312c2.151 0 3.226 0 4.047-.419a3.838 3.838 0 0 0 1.678-1.678c.419-.822.419-1.897.419-4.047v-8.192c0-2.151 0-3.226-.419-4.047a3.838 3.838 0 0 0-1.678-1.678c-.822-.419-1.897-.419-4.047-.419H9.344c-2.151 0-3.226 0-4.047.419a3.838 3.838 0 0 0-1.678 1.678C3.2 8.678 3.2 9.754 3.2 11.904v8.192c0 2.151 0 3.226.419 4.047.368.723.956 1.31 1.678 1.678.821.419 1.897.419 4.047.419z" opacity=".8" /></symbol>
<symbol id="menu" viewBox="0 0 32 32"><path stroke-linecap="round" stroke-linejoin="round" stroke-width="2.5" d="M4 16h24M4 8h24M4 24h16"/></symbol>
<symbol id="icon-Minus" viewBox="0 0 32 32"><path stroke-linecap="round" stroke-linejoin="round" stroke-width="3" d="M5 16h22"/></symbol>
<symbol id="icon-pick" viewBox="0 0 32 32"><path fill="#8baa36" d="M26.151 1.405a3.2 3.2 0 1 1 5.297 3.591L14.092 30.595c-1.269 1.872-4.028 1.872-5.297 0L.551 18.435a3.199 3.199 0 1 1 5.297-3.591l5.595 8.253L26.15 1.404z" style="fill:var(--color2, #8baa36)"/></symbol>
<symbol id="plus" viewBox="0 0 32 32"><path   stroke-linecap="round" stroke-linejoin="round" stroke-width="3.556" d="M16 6.667v18.667M6.667 16h18.667" /></symbol>
<symbol id="icon-Rectangle-11" viewBox="0 0 32 32"><path fill="#8baa36" d="m4.834 7.524 12.89-6.011a5.333 5.333 0 0 1 7.088 2.58l6.011 12.89a5.333 5.333 0 0 1-2.58 7.088l-12.89 6.011a5.333 5.333 0 0 1-7.088-2.58l-6.011-12.89a5.333 5.333 0 0 1 2.58-7.088z" style="fill:var(--color2, #8baa36)"/></symbol>
<symbol id="search" viewBox="0 0 32 32"><path stroke-linecap="round" stroke-linejoin="round" stroke-width="2.667" d="M14.667 25.333c5.891 0 10.667-4.776 10.667-10.667S20.558 3.999 14.667 3.999 4 8.775 4 14.666s4.776 10.667 10.667 10.667zM28 28l-5.8-5.8"/></symbol>
<symbol id="icon-trash-01" viewBox="0 0 32 32"><path stroke-linecap="round" stroke-linejoin="round" stroke-width="2.667" d="M21.333 8V6.933c0-1.493 0-2.24-.291-2.811a2.666 2.666 0 0 0-1.165-1.165c-.57-.291-1.317-.291-2.811-.291h-2.133c-1.493 0-2.24 0-2.811.291-.502.256-.91.664-1.165 1.165-.291.57-.291 1.317-.291 2.811V8m2.667 7.333V22m5.334-6.667V22M4 8h24m-2.667 0v14.933c0 2.24 0 3.36-.436 4.216a3.991 3.991 0 0 1-1.748 1.748c-.856.436-1.976.436-4.216.436h-5.867c-2.24 0-3.36 0-4.216-.436a3.991 3.991 0 0 1-1.748-1.748c-.436-.856-.436-1.976-.436-4.216V8"/></symbol>
<symbol id="user" viewBox="0 0 32 32"><path fill="none"  stroke-linecap="round" stroke-linejoin="round" stroke-width="2.56" d="M26.24 27.52c0-1.786 0-2.679-.22-3.406a5.12 5.12 0 0 0-3.413-3.413c-.727-.22-1.62-.22-3.406-.22h-6.4c-1.786 0-2.679 0-3.406.22a5.12 5.12 0 0 0-3.413 3.413c-.22.727-.22 1.62-.22 3.406M21.76 10.24a5.76 5.76 0 1 1-11.52 0 5.76 5.76 0 0 1 11.52 0z" opacity=".8" /></symbol>
<symbol id="icon-Vector-1" viewBox="0 0 32 32"><path fill="#8baa36" d="M32 6.233c-1.2.522-2.47.865-3.77 1.02a6.502 6.502 0 0 0 2.889-3.573 13.189 13.189 0 0 1-4.171 1.567A6.623 6.623 0 0 0 22.154 3.2c-3.628 0-6.564 2.893-6.564 6.46-.003.496.054.991.169 1.473A18.723 18.723 0 0 1 2.226 4.38a6.386 6.386 0 0 0-.893 3.247c0 2.24 1.169 4.22 2.933 5.38a6.499 6.499 0 0 1-2.985-.807v.08c0 3.133 2.267 5.74 5.267 6.333a6.733 6.733 0 0 1-1.729.227 6.31 6.31 0 0 1-1.234-.12c.834 2.567 3.261 4.433 6.137 4.487a13.304 13.304 0 0 1-8.155 2.767A13.671 13.671 0 0 1 0 25.881a18.578 18.578 0 0 0 10.049 2.92c12.091 0 18.696-9.847 18.696-18.387 0-.28-.007-.56-.021-.833a13.222 13.222 0 0 0 3.275-3.347z" style="fill:var(--color2, #8baa36)"/></symbol>
<symbol id="icon-Vector-2" viewBox="0 0 32 32"><path fill="#a9a9a9" d="M23.775.842c.24.265.431.58.561.927a3.12 3.12 0 0 1 0 2.188c-.13.347-.321.662-.561.927l-10.056 11.12 10.056 11.12c.485.536.757 1.263.757 2.02s-.272 1.485-.757 2.02c-.485.536-1.142.837-1.827.837s-1.343-.301-1.827-.837L8.225 18.01c-.24-.265-.431-.58-.561-.927a3.12 3.12 0 0 1 0-2.188c.13-.347.321-.662.561-.927L20.121.814c.985-1.089 2.644-1.089 3.654.029z" opacity=".73" style="fill:var(--color4, #a9a9a9)"/></symbol>
<symbol id="icon-Vector-3" viewBox="0 0 32 32"><path fill="#a9a9a9" d="M8.225.842c-.24.265-.431.58-.561.927a3.12 3.12 0 0 0 0 2.188c.13.347.321.662.561.927l10.056 11.12-10.056 11.12c-.485.536-.757 1.263-.757 2.02s.272 1.485.757 2.02c.485.536 1.142.837 1.827.837s1.343-.301 1.827-.837L23.775 18.01c.24-.265.431-.58.561-.927a3.12 3.12 0 0 0 0-2.188 2.891 2.891 0 0 0-.561-.927L11.879.814C10.894-.275 9.235-.275 8.225.843z" opacity=".73" style="fill:var(--color4, #a9a9a9)"/></symbol>
<symbol id="icon-Vector-4" viewBox="0 0 32 32"><path fill="none" stroke="#fafafa" stroke-linecap="round" stroke-linejoin="round" stroke-width=".64" d="M31.604 10.149V4.286A3.899 3.899 0 0 0 27.715.385L21.852.367m9.752 21.484v5.851a3.905 3.905 0 0 1-3.901 3.901h-5.851M10.149.367l-5.863.02A3.897 3.897 0 0 0 .397 4.288v5.861m9.752 21.455H4.298a3.905 3.905 0 0 1-3.901-3.901v-5.851" style="stroke:var(--color3, #fafafa)"/></symbol>
<symbol id="icon-Vector" viewBox="0 0 32 32"><path fill="#8baa36" d="M31.794 9.299c0-2.812-2.069-5.075-4.626-5.075A227.205 227.205 0 0 0 16.564 4h-1.125c-3.6 0-7.138.063-10.601.225C2.288 4.225.219 6.5.219 9.312A92.957 92.957 0 0 0 0 15.986a96.87 96.87 0 0 0 .213 6.681c0 2.812 2.069 5.094 4.619 5.094 3.638.169 7.37.244 11.164.237a224.3 224.3 0 0 0 11.164-.237c2.557 0 4.626-2.281 4.626-5.094.15-2.231.219-4.456.213-6.687a90.948 90.948 0 0 0-.204-6.681zM12.94 22.118V9.837l9.064 6.137-9.064 6.144z" style="fill:var(--color2, #8baa36)"/></symbol>

<symbol id="close" viewBox="0 0 32 32"><path stroke-linecap="round" stroke-linejoin="round" stroke-width="2.4" d="M25 7 7 25M25 25 7 7"/></symbol>

<symbol id="icon-untitled" viewBox="0 0 32 32"><path fill="#8baa36" d="M22.349 3.301a6.368 6.368 0 0 1 6.349 6.349v12.698a6.368 6.368 0 0 1-6.349 6.349H9.651a6.37 6.37 0 0 1-6.349-6.349V9.65a6.37 6.37 0 0 1 6.349-6.349h12.698zm0-2.539H9.651c-4.889 0-8.889 4-8.889 8.889v12.698c0 4.889 4 8.889 8.889 8.889h12.698c4.889 0 8.889-4 8.889-8.889V9.651c0-4.889-4-8.889-8.889-8.889z" style="fill:var(--color2, #8baa36)"/><path fill="#8baa36" d="M24.254 9.654a1.905 1.905 0 1 1 .003-3.812 1.905 1.905 0 0 1-.004 3.813zM16 10.923a5.079 5.079 0 1 1 .003 10.156 5.079 5.079 0 0 1-.004-10.155zm0-2.539a7.62 7.62 0 0 0-7.473 9.105 7.624 7.624 0 0 0 5.986 5.986 7.616 7.616 0 0 0 7.821-3.24 7.62 7.62 0 0 0-6.335-11.852z" style="fill:var(--color2, #8baa36)"/></symbol>
<symbol id="icon-1" viewBox="0 0 32 32"><path fill="#8baa36" d="M31.238 16.092C31.238 7.626 24.415.762 16 .762S.762 7.626.762 16.092c0 7.651 5.571 13.994 12.857 15.145V20.525h-3.87v-4.433h3.87v-3.377c0-3.841 2.276-5.965 5.756-5.965 1.667 0 3.412.3 3.412.3v3.773h-1.922c-1.892 0-2.484 1.181-2.484 2.395v2.874h4.226l-.675 4.433h-3.55v10.713c7.286-1.15 12.857-7.493 12.857-15.146z" style="fill:var(--color2, #8baa36)"/></symbol>
<symbol id="errorLogo" viewBox="0 0 32 32"><path  d="M0 16C0 7.162 7.162 0 16 0s16 7.162 16 16c0 8.837-7.163 16-16 16S0 24.837 0 16zm10.938-2.994 2.944 2.938-2.944 2.994c-.581.588-.581 1.538 0 2.069.588.637 1.537.637 2.069 0l2.938-2.888 2.994 2.888c.588.637 1.538.637 2.069 0 .637-.531.637-1.481 0-2.069l-2.888-2.994 2.888-2.938c.637-.531.637-1.481 0-2.069-.531-.581-1.481-.581-2.069 0l-2.994 2.944-2.938-2.944c-.531-.581-1.481-.581-2.069 0-.581.588-.581 1.537 0 2.069z" /></symbol>
<symbol id="tickLogo" viewBox="0 0 32 32"><path  d="M0 16C0 7.162 7.162 0 16 0s16 7.162 16 16c0 8.837-7.163 16-16 16S0 24.837 0 16zm23.237-2.762c.681-.681.681-1.794 0-2.475s-1.794-.681-2.475 0l-6.763 6.762-2.763-2.762c-.681-.681-1.794-.681-2.475 0s-.681 1.794 0 2.475l4 4a1.755 1.755 0 0 0 2.475 0l8-8z" /></symbol>
<symbol id="exclamationLogo" viewBox="0 0 32 32"><path fill="#f6c23e" d="M16 0C7.162 0 0 7.162 0 16s7.162 16 16 16c8.837 0 16-7.163 16-16S24.837 0 16 0zm-1.5 9.5c0-.825.675-1.5 1.5-1.5s1.5.672 1.5 1.5v8a1.5 1.5 0 0 1-3 0v-8zM16 25a1.965 1.965 0 1 1 0-3.93A1.965 1.965 0 0 1 16 25z" style="fill:var(--color1, #f6c23e)"/></symbol>
<symbol id="eye" viewBox="0 0 32 32"><path d="M16 6C9.021 6 2.972 10.064 0 16c2.972 5.936 9.021 10 16 10s13.027-4.064 16-10c-2.972-5.936-9.021-10-16-10zm7.889 5.303A15.212 15.212 0 0 1 28.559 16a15.223 15.223 0 0 1-4.67 4.697C21.527 22.204 18.799 23 16 23s-5.527-.796-7.889-2.303A15.212 15.212 0 0 1 3.441 16a15.223 15.223 0 0 1 5.041-4.925 8 8 0 1 0 15.036 0c.124.074.248.15.371.228zM16 13a3 3 0 1 1-6 0 3 3 0 0 1 6 0z"/></symbol>
<symbol id="eyeBlocked" viewBox="0 0 32 32"><path d="M29.561.439a1.5 1.5 0 0 0-2.121 0l-6.318 6.318A17.626 17.626 0 0 0 16 6C9.021 6 2.972 10.064 0 16a18.323 18.323 0 0 0 5.407 6.472L.439 27.44a1.5 1.5 0 1 0 2.122 2.121l27-27a1.5 1.5 0 0 0 0-2.121zM13 10a3 3 0 0 1 2.841 2.037l-3.804 3.804A3 3 0 0 1 13 10zm-9.559 6a15.223 15.223 0 0 1 5.041-4.925A7.985 7.985 0 0 0 8 13.812c0 1.715.54 3.304 1.459 4.607l-1.904 1.904A15.219 15.219 0 0 1 3.441 16zM24 13.813c0-.849-.133-1.667-.378-2.434L13.566 21.435a8 8 0 0 0 10.435-7.622z"/><path d="M25.938 9.062 23.77 11.23l.118.074a15.212 15.212 0 0 1 4.67 4.697 15.223 15.223 0 0 1-4.67 4.697 14.642 14.642 0 0 1-11.45 1.864l-2.403 2.403a17.587 17.587 0 0 0 5.964 1.036c6.978 0 13.027-4.064 16-10a18.292 18.292 0 0 0-6.062-6.938z"/></symbol>
<symbol id="logo" viewBox="0 0 44 44" >
<rect width="44" height="44" rx="12"  />
<path d="M10 10.1025V15.5561V15.6661V15.5561C10 17.1133 10.6794 18.4919 11.7328 19.3842C12.2479 19.8205 12.5882 20.4096 12.5882 21.0635V30.1667C12.5882 31.1788 13.4579 32.0001 14.5294 32.0001C15.6009 32.0001 16.4706 31.1788 16.4706 30.1667V21.0635C16.4706 20.4096 16.8109 19.8205 17.326 19.3842C18.3794 18.4919 19.0588 17.1133 19.0588 15.5561V10.1025V15.5561" stroke-width="2" stroke-linecap="round" stroke-linejoin="round"/><path d="M14.5293 16.1112V10" stroke-width="2" stroke-linecap="round" stroke-linejoin="round"/><path d="M31.9999 11.2854C31.9999 10.6108 31.4201 10.0632 30.7058 10.0632H29.4116C27.2673 10.0632 25.5293 11.7047 25.5293 13.7299V21.0633C25.5293 22.6571 26.6125 24.0004 28.1175 24.5052V30.1666C28.1175 31.1786 28.9872 31.9999 30.0587 31.9999C31.1302 31.9999 31.9999 31.1786 31.9999 30.1666V24.73V11.2854Z" stroke-width="2" stroke-linecap="round" stroke-linejoin="round"/></symbol>
<symbol id="switch" viewBox="0 0 34 32"><path d="M32.609 16c0 8.837-7.283 16-16.267 16S.075 24.837.075 16 7.358 0 16.342 0s16.267 7.163 16.267 16z"/></symbol></defs></svg>




